<?xml version="1.0" encoding="utf-8"?>
<!DOCTYPE svg PUBLIC "-//W3C//DTD SVG 1.1//EN"
	"http://www.w3.org/Graphics/SVG/1.1/DTD/svg11.dtd">
<svg version="1.1" xmlns="http://www.w3.org/2000/svg" xmlns:xlink="http://www.w3.org/1999/xlink" width="30px" height="30px">
	<path fill="#C6C3BD" d="M5.146,7.479c0,0-1.274-0.164-1.274-1.384c0-1.24,1.191-1.191,1.191-1.191l6.285-0.078 c0.953-0.014,1.816,1.611,0.954,2.355c-0.579,0.579-5.717,5.614-5.717,5.614v2.271L16.97,4.683h6.541 c0.775-0.042,2.291,1.039,1.018,2.666L8.551,23.347h2.464L22.74,11.465c0.809-0.908,2.428-0.229,2.428,1.292c0,0,0,4.481,0,6.185 c0,0.132-4.307,4.405-4.307,4.405h2.966c0.096,0,1.204,0.235,1.204,1.453c0,0.948-1.128,1.411-1.382,1.411h-5.767 c-1.072,0-1.641-0.651-1.641-1.143v-0.92c0-0.224,6.109-6.109,6.109-6.109v-2.42L11.717,26.217c0,0-5.023-0.027-6.429,0 c-1.42,0.028-1.914-2.019-0.646-2.997L20.268,7.594h-2.385L5.867,19.609c-1.115,0.701-2.087-0.396-2.054-1.171v-6.695l4.21-4.21 L5.146,7.479z"/>
</svg>
