<?xml version="1.0" encoding="utf-8"?>
<!DOCTYPE svg PUBLIC "-//W3C//DTD SVG 1.1//EN"
	"http://www.w3.org/Graphics/SVG/1.1/DTD/svg11.dtd">
<svg version="1.1" xmlns="http://www.w3.org/2000/svg" xmlns:xlink="http://www.w3.org/1999/xlink" width="30px" height="30px">
	<path fill="#C6C3BD" d="M4.652,14.55c4.71-1.94,6.99-0.905,9.032,0.48l-2.358,8.105c-2.049-1.378-4.277-2.513-9.006-0.558 l2.306-8.017L4.652,14.55z"/>
	<path fill="#C6C3BD" d="M14.919,15.815c2.048,1.377,4.143,2.388,8.954,0.741l-2.245,7.814c-4.726,1.953-6.993,0.848-9.038-0.538 L14.919,15.815z"/>
	<path fill="#C6C3BD" d="M14.077,13.57c-1.233-0.83-2.561-1.606-4.443-1.62c-1.243-0.01-2.723,0.344-4.602,1.12L7.36,5.003 c4.726-1.954,6.996-0.847,9.043,0.539L14.077,13.57z"/>
	<path fill="#C6C3BD" d="M26.663,6.91c-4.72,1.951-6.987,0.854-9.03-0.523l-2.329,8.075c2.042,1.385,4.509,2.52,9.033,0.496 L26.663,6.91z"/>
</svg>
